0
SECTION
2
HEADER
9
$INSUNITS
70
4
9
$ACADVER
1
AC1014
9
$HANDSEED
5
FFFF
0
ENDSEC
0
SECTION
2
TABLES
0
TABLE
2
VPORT
5
8
100
AcDbSymbolTable
0
ENDTAB
0
TABLE
2
LTYPE
5
5
100
AcDbSymbolTable
0
LTYPE
5
14
100
AcDbSymbolTableRecord
100
AcDbLinetypeTableRecord
2
BYBLOCK
70
0
0
LTYPE
5
15
100
AcDbSymbolTableRecord
100
AcDbLinetypeTableRecord
2
BYLAYER
70
0
0
LTYPE
5
16
100
AcDbSymbolTableRecord
100
AcDbLinetypeTableRecord
2
DASHED
70
0
3
Dashed __ __ __ __ __ __ __ __ __ __ __ __ __ _
72
65
73
2
40
0.75
49
0.5
74
0
49
-0.25
74
0
0
ENDTAB
0
TABLE
2
LAYER
5
2
100
AcDbSymbolTable
70
2
0
LAYER
5
50
100
AcDbSymbolTableRecord
100
AcDbLayerTableRecord
2
0
70
0
62
7
6
CONTINUOUS
0
ENDTAB
0
TABLE
2
STYLE
5
3
100
AcDbSymbolTable
70
1
0
STYLE
5
11
100
AcDbSymbolTableRecord
100
AcDbTextStyleTableRecord
2
STANDARD
70
0
0
ENDTAB
0
TABLE
2
VIEW
5
6
100
AcDbSymbolTable
70
0
0
ENDTAB
0
TABLE
2
UCS
5
7
100
AcDbSymbolTable
70
0
0
ENDTAB
0
TABLE
2
APPID
5
9
100
AcDbSymbolTable
70
2
0
APPID
5
12
100
AcDbSymbolTableRecord
100
AcDbRegAppTableRecord
2
ACAD
70
0
0
ENDTAB
0
TABLE
2
DIMSTYLE
5
A
100
AcDbSymbolTable
70
1
0
ENDTAB
0
TABLE
2
BLOCK_RECORD
5
1
100
AcDbSymbolTable
70
1
0
BLOCK_RECORD
5
1F
100
AcDbSymbolTableRecord
100
AcDbBlockTableRecord
2
*MODEL_SPACE
0
BLOCK_RECORD
5
1B
100
AcDbSymbolTableRecord
100
AcDbBlockTableRecord
2
*PAPER_SPACE
0
ENDTAB
0
ENDSEC
0
SECTION
2
BLOCKS
0
BLOCK
5
20
100
AcDbEntity
100
AcDbBlockBegin
2
*MODEL_SPACE
0
ENDBLK
5
21
100
AcDbEntity
100
AcDbBlockEnd
0
BLOCK
5
1C
100
AcDbEntity
100
AcDbBlockBegin
2
*PAPER_SPACE
0
ENDBLK
5
1D
100
AcDbEntity
100
AcDbBlockEnd
0
ENDSEC
0
SECTION
2
ENTITIES
0
LWPOLYLINE
5
100
100
AcDbEntity
8
0
100
AcDbPolyline
90
12
70
1
43
0.0
10
122
20
60
42
0.41421356237309243
10
120
20
58
10
120
20
40.785380488391226
42
0.18930855855784615
10
120.53441301674738
20
39.424478289656697
10
249.40655204168209
20
-99.360902198734564
42
0.20855160249692631
10
250.87213902493471
20
-100.00000000000001
10
269.12786097506535
20
-100
42
0.20855160249692975
10
270.59344795831794
20
-99.360902198734564
10
399.46558698325254
20
39.424478289656605
42
0.18930855855785966
10
400
20
40.785380488391148
10
400
20
58.000000000000007
42
0.41421356237309243
10
398
20
60.000000000000014
0
LWPOLYLINE
5
101
100
AcDbEntity
8
0
100
AcDbPolyline
90
6
70
1
43
0.0
10
273.36090219873455
20
23.232752833644462
42
0.65487348315777427
10
270
20
21.767165850391876
10
270
20
-65.514660781542943
42
0.68164937989280205
10
273.46558698325259
20
-66.875562980277493
10
316.98693615314886
20
-20.006417720389194
42
0.41421356237309231
10
316.88225136863082
20
-17.179928538402052
0
LWPOLYLINE
5
102
100
AcDbEntity
8
0
100
AcDbPolyline
90
6
70
1
43
0.0
10
231.57169619146427
20
36.534413016747401
42
0.68164937989279728
10
230.21079399272969
20
40
10
151.87924355999584
20
40
42
0.65487348315777671
10
150.41365657674325
20
36.639097801265436
10
186.68223746203648
20
-2.4193739213580479
42
0.41421356237309231
10
189.50872664402362
20
-2.5240587058760688
0
LWPOLYLINE
5
103
100
AcDbEntity
8
0
100
AcDbPolyline
90
6
70
1
43
0.0
10
203.11774863136915
20
-17.179928538402041
42
0.41421356237309986
10
203.01306384685114
20
-20.006417720389223
10
246.53441301674741
20
-66.875562980277493
42
0.68164937989280205
10
250
20
-65.514660781542943
10
250
20
21.767165850391876
42
0.65487348315777227
10
246.63909780126545
20
23.232752833644472
0
LWPOLYLINE
5
104
100
AcDbEntity
8
0
100
AcDbPolyline
90
6
70
1
43
0.0
10
369.58634342325672
20
36.639097801265422
42
0.65487348315778016
10
368.12075644000413
20
39.999999999999993
10
289.78920600727031
20
40
42
0.68164937989279961
10
288.42830380853576
20
36.534413016747386
10
330.49127335597638
20
-2.5240587058761381
42
0.41421356237308699
10
333.31776253796352
20
-2.4193739213580745
0
CIRCLE
5
105
100
AcDbEntity
8
0
100
AcDbCircle
10
260
20
-90
30
0
40
2.5999999999999801
210
0
220
-0
230
1
0
CIRCLE
5
106
100
AcDbEntity
8
0
100
AcDbCircle
10
260
20
50
30
0
40
2.6000000000000156
210
0
220
-0
230
1
0
CIRCLE
5
107
100
AcDbEntity
8
0
100
AcDbCircle
10
130
20
50
30
0
40
2.5999999999999979
210
0
220
-0
230
1
0
CIRCLE
5
108
100
AcDbEntity
8
0
100
AcDbCircle
10
390
20
50
30
0
40
2.5999999999999801
210
0
220
-0
230
1
0
ENDSEC
0
SECTION
2
OBJECTS
0
DICTIONARY
5
C
100
AcDbDictionary
3
ACAD_GROUP
350
D
3
ACAD_MLINESTYLE
350
17
0
DICTIONARY
5
D
100
AcDbDictionary
0
DICTIONARY
5
1A
330
C
100
AcDbDictionary
0
DICTIONARY
5
17
100
AcDbDictionary
0
ENDSEC
0
EOF
